<?xml version="1.0" encoding="UTF-8"?>
<svg version="1.1" xmlns="http://www.w3.org/2000/svg" width="609" height="158">
<path d="M0 0 C0.84662043 -0.00301597 1.69324085 -0.00603194 2.56551644 -0.0091393 C3.49767109 -0.00736983 4.42982574 -0.00560036 5.3902275 -0.00377727 C6.3829668 -0.0058299 7.37570611 -0.00788253 8.39852843 -0.00999737 C11.75757322 -0.01569571 15.11657737 -0.01420664 18.47562617 -0.0127914 C20.89519748 -0.0153734 23.31476836 -0.0183861 25.73433864 -0.0217948 C31.70757997 -0.02903718 37.68080747 -0.03156835 43.65405184 -0.03212385 C50.80601159 -0.03303651 57.95796303 -0.03970112 65.10991922 -0.04647068 C82.3969829 -0.0625426 99.68404572 -0.06843515 116.97111554 -0.07321942 C125.14582118 -0.07555401 133.32052612 -0.07915649 141.49523122 -0.0829148 C169.46743892 -0.09575087 197.43964624 -0.1064704 225.41185683 -0.1099174 C227.16829427 -0.11013904 228.92473172 -0.11036082 230.68116916 -0.11058275 C232.44189382 -0.1108034 234.20261848 -0.11102388 235.96334314 -0.1112442 C239.49577306 -0.11168676 243.02820297 -0.11213387 246.56063288 -0.11258388 C247.43647233 -0.11269327 248.31231178 -0.11280266 249.21469182 -0.11291536 C277.62327789 -0.11654719 306.03183846 -0.1324717 334.44041476 -0.15577424 C364.46213881 -0.18035505 394.48384828 -0.19408941 424.50558269 -0.19528532 C427.79944227 -0.19545678 431.09330185 -0.19567221 434.38716143 -0.19591975 C435.19822673 -0.19597552 436.00929202 -0.19603129 436.84493505 -0.19608875 C449.91240151 -0.19724067 462.97984186 -0.2082746 476.0472995 -0.22280681 C489.17475767 -0.23715362 502.30218226 -0.24041907 515.42964611 -0.23236683 C523.23357122 -0.2279021 531.03738816 -0.23180477 538.84129912 -0.24760534 C544.66109832 -0.25846807 550.48081566 -0.25374094 556.30061718 -0.24283347 C558.66064703 -0.24086357 561.02068758 -0.24401393 563.38070235 -0.25267783 C566.57837351 -0.26367777 569.77548874 -0.25634808 572.97314376 -0.2442863 C573.89827491 -0.25188149 574.82340606 -0.25947669 575.77657148 -0.26730204 C580.89335714 -0.22537895 584.44877665 0.26224204 588.87044734 3.1276505 C592.74173085 7.41745115 593.99319683 9.81115386 594.01761836 15.52210546 C594.02835131 17.24016393 594.02835131 17.24016393 594.0393011 18.99293065 C594.04333445 20.88722562 594.04333445 20.88722562 594.04744929 22.81978917 C594.05371342 24.15846488 594.06036018 25.49713885 594.06736201 26.8358109 C594.08841551 31.239068 594.0987674 35.6423255 594.10872859 40.04561925 C594.11277604 41.56166977 594.11689295 43.07772012 594.12107867 44.59377027 C594.14013527 51.71808218 594.15436381 58.84238372 594.16269064 65.96671623 C594.17245725 74.18713148 594.1987595 82.40727703 594.23919153 90.62759727 C594.26937485 96.9826861 594.28416171 103.33769774 594.28747165 109.69285685 C594.28982018 113.48763594 594.29875398 117.28212708 594.32393283 121.0768292 C594.34725683 124.64985475 594.35142977 128.22240371 594.34117144 131.79548573 C594.34044196 133.72527457 594.35950415 135.65503943 594.3792364 137.58472753 C594.33904541 144.29577843 594.14542783 148.81258966 589.87044734 154.1276505 C584.64352786 158.57649552 580.50230502 158.69793631 573.95308226 158.63380837 C572.95380427 158.63992173 571.95452628 158.64603509 570.92496714 158.65233371 C567.56150969 158.66798964 564.19876753 158.65504445 560.83530635 158.6423142 C558.40560515 158.64763694 555.97590725 158.65470105 553.54621565 158.66336125 C548.25584058 158.67814437 542.96567747 158.68043634 537.67530459 158.67176366 C529.80838526 158.65890173 521.94160996 158.66884735 514.07469928 158.68326321 C500.024962 158.70821422 485.97529206 158.71008261 471.92553909 158.70198909 C459.62986789 158.69492056 447.33422285 158.69485474 435.03855151 158.70185208 C433.39021437 158.70276341 431.74187723 158.70367417 430.09354008 158.70458437 C427.60974825 158.70596748 425.12595641 158.70735857 422.64216459 158.7087705 C399.54549159 158.72175429 376.44882737 158.72686183 353.352153 158.7152369 C352.48122094 158.71479893 351.61028887 158.71436096 350.71296492 158.71390972 C343.64005394 158.71030277 336.56714308 158.70646806 329.49423223 158.70261879 C301.90174576 158.68776999 274.30935826 158.69655123 246.71688288 158.72457433 C215.72639293 158.75598817 184.73596157 158.77097675 153.74545538 158.76077431 C150.44235658 158.75973751 147.13925776 158.75875029 143.83615893 158.7577908 C143.02283426 158.75754192 142.20950959 158.75729303 141.37153872 158.7570366 C129.08352657 158.75359371 116.79556611 158.76291343 104.50756472 158.77856183 C90.53628961 158.79631275 76.56514044 158.79648884 62.59387077 158.77321018 C54.77230504 158.76069026 46.95102852 158.76199378 39.12947964 158.78309104 C33.29488225 158.7972834 27.46052942 158.78543706 21.62595015 158.76329409 C19.26128503 158.75838857 16.89658441 158.76198644 14.53194881 158.77478153 C11.32530827 158.79088534 8.12022308 158.77638868 4.91365355 158.75406289 C3.52637063 158.77205041 3.52637063 158.77205041 2.11106178 158.79040131 C-4.22500916 158.69990507 -7.34372642 157.31372625 -12.12955266 153.1276505 C-16.39010781 147.56514101 -15.55792741 140.76812659 -15.5336054 134.07320714 C-15.54046865 132.75708943 -15.5473319 131.44097173 -15.55440313 130.08497167 C-15.57230705 126.48572718 -15.57117144 122.88672686 -15.56546074 119.28745127 C-15.56236482 116.27805975 -15.56846582 113.26871485 -15.57449949 110.25932997 C-15.58853404 103.15753584 -15.58699241 96.05586203 -15.57559758 88.95406651 C-15.56411747 81.63762275 -15.57819243 74.3215456 -15.60499406 67.00515014 C-15.62717481 60.71365052 -15.63378311 54.42226578 -15.62791765 48.13072985 C-15.6245525 44.37740218 -15.62693342 40.62430948 -15.64416867 36.87101483 C-15.66255624 32.68427107 -15.64842642 28.49823733 -15.63126165 24.31148839 C-15.64092962 23.07438115 -15.65059758 21.83727391 -15.66055852 20.56267858 C-15.60304037 13.86415477 -15.19747296 9.54468865 -11.12955266 4.1276505 C-7.68063433 0.9922702 -4.61207427 0.00325222 0 0 Z M15.87044734 31.1276505 C15.87044734 62.4776505 15.87044734 93.8276505 15.87044734 126.1276505 C22.14044734 126.1276505 28.41044734 126.1276505 34.87044734 126.1276505 C34.87044734 117.8776505 34.87044734 109.6276505 34.87044734 101.1276505 C45.49544734 101.3776505 45.49544734 101.3776505 48.81038874 101.48800206 C54.617169 101.55404873 58.45395511 101.3297499 62.87044734 97.1276505 C64.59067314 93.61396677 65.12506114 90.77363417 65.14510554 86.88180089 C65.15463755 85.86046559 65.16416957 84.8391303 65.17399043 83.78684545 C65.17307902 82.69403768 65.17216761 81.60122991 65.17122859 80.47530675 C65.17765628 78.77597241 65.17765628 78.77597241 65.18421382 77.04230809 C65.18995024 74.64929425 65.19046246 72.25626298 65.18612117 69.8632462 C65.18296184 66.20693709 65.20642785 62.55143772 65.23177546 58.89522862 C65.23404861 56.56775569 65.23475188 54.24028057 65.23372859 51.91280675 C65.24293833 50.82202321 65.25214808 49.73123967 65.26163691 48.60740209 C65.29034948 40.87755507 65.29034948 40.87755507 61.87044734 34.1276505 C47.74694989 28.07472302 31.23635477 31.1276505 15.87044734 31.1276505 Z M71.87044734 31.1276505 C71.87044734 62.4776505 71.87044734 93.8276505 71.87044734 126.1276505 C78.14044734 126.1276505 84.41044734 126.1276505 90.87044734 126.1276505 C90.87044734 116.2276505 90.87044734 106.3276505 90.87044734 96.1276505 C91.86044734 96.1276505 92.85044734 96.1276505 93.87044734 96.1276505 C94.11279109 97.13183019 94.35513484 98.13600987 94.60482234 99.17061925 C97.00209846 113.65551675 97.00209846 113.65551675 102.87044734 126.1276505 C104.28614857 126.21416661 105.70604234 126.23469954 107.12435359 126.22530675 C107.97835749 126.22208409 108.8323614 126.21886144 109.71224421 126.21554112 C110.61007624 126.20716222 111.50790828 126.19878331 112.43294734 126.1901505 C113.78549617 126.18338292 113.78549617 126.18338292 115.16536921 126.17647862 C117.40046047 126.16465274 119.6354217 126.1481727 121.87044734 126.1276505 C120.47197266 119.24122217 118.52029957 112.70938353 116.24544734 106.0651505 C115.92060359 105.10415441 115.59575984 104.14315831 115.26107234 103.15304112 C114.46833542 100.80980406 113.67140158 98.46808874 112.87044734 96.1276505 C113.63357234 96.0451505 114.39669734 95.9626505 115.18294734 95.8776505 C118.50619526 94.95023247 119.12655823 94.04923477 120.87044734 91.1276505 C121.327469 88.67328499 121.327469 88.67328499 121.27450007 85.99532628 C121.28718425 84.97391545 121.29986842 83.95250463 121.31293696 82.90014195 C121.31000132 81.8021729 121.30706568 80.70420384 121.30404109 79.572963 C121.30928294 78.43865849 121.31452479 77.30435399 121.31992549 76.13567662 C121.32634772 73.73668796 121.32500612 71.33766781 121.31649226 68.93868566 C121.30799506 65.27323629 121.33672274 61.60935164 121.36849421 57.94405675 C121.37010665 55.61202597 121.36952787 53.27999243 121.36654109 50.947963 C121.37777507 49.85404241 121.38900904 48.76012181 121.40058345 47.63305211 C121.34693699 41.75589961 121.26882504 37.48899205 116.87044734 33.1276505 C102.43335035 29.00276565 86.88525484 31.1276505 71.87044734 31.1276505 Z M130.99544734 36.0026505 C128.63638428 40.45865849 128.73696496 45.11717896 128.70931453 50.07003331 C128.70434962 50.74881032 128.69938472 51.42758733 128.69426936 52.12693334 C128.67972429 54.36155791 128.67285803 56.59611146 128.66732234 58.8307755 C128.66449496 59.59826871 128.66166758 60.36576192 128.65875453 61.1565125 C128.64379154 65.21932369 128.63454428 69.28209965 128.63021296 73.34493566 C128.62473747 77.52202623 128.60072084 81.69878935 128.57224101 85.87577748 C128.5535287 89.10503609 128.54840445 92.33421722 128.54687709 95.56352544 C128.54386859 97.10236706 128.53590169 98.64120791 128.52269191 100.17999578 C128.13697748 112.07019433 128.13697748 112.07019433 131.87044734 123.1276505 C135.64631226 126.61982344 139.69498165 126.56868288 144.62044734 126.526088 C145.35617976 126.52895818 146.09191218 126.53182836 146.84993953 126.53478551 C148.39975208 126.53681976 149.94959068 126.53133465 151.49935359 126.51876378 C153.86322226 126.5026996 156.22538145 126.5186327 158.58919734 126.53780675 C160.09961775 126.5358242 161.61003711 126.53198029 163.12044734 126.526088 C163.82266413 126.53216069 164.52488093 126.53823339 165.24837703 126.5444901 C169.62317276 126.48220339 172.3745041 125.77977348 175.87044734 123.1276505 C179.25116714 118.22560679 178.99761965 111.87039455 179.01571101 106.13180089 C179.01906962 105.45941884 179.02242823 104.78703679 179.02588862 104.09427953 C179.03533008 101.8879361 179.03733813 99.68166908 179.03841609 97.47530675 C179.04163286 95.93123397 179.04499725 94.38716149 179.04850215 92.84308934 C179.054476 89.61282194 179.05634379 86.38258123 179.05575007 83.1523087 C179.05564843 79.02556729 179.069311 74.89899782 179.08652228 70.77229714 C179.09767197 67.58515704 179.09966839 64.39805816 179.09914035 61.21090055 C179.10031558 59.68995563 179.1047116 58.16900949 179.11247271 56.64808393 C179.12233509 54.51623339 179.11937052 52.38475186 179.11336726 50.25289464 C179.11479228 49.04299367 179.1162173 47.8330927 179.1176855 46.58652806 C178.75427437 41.50238332 178.16309548 37.42029865 174.49544734 33.7526505 C168.30507105 29.9205128 161.11351215 30.906288 154.05794734 30.8776505 C152.79917781 30.8570255 151.54040828 30.8364005 150.24349421 30.8151505 C139.69488477 30.65217162 139.69488477 30.65217162 130.99544734 36.0026505 Z M188.72347468 35.08565831 C186.08290687 39.42050349 186.29551365 43.11474343 186.33919734 48.10030675 C186.33537043 49.06037129 186.33154353 50.02043584 186.32760066 51.00959325 C186.32488437 53.03438931 186.33222568 55.05922062 186.34896296 57.08394933 C186.37039992 60.18329516 186.34913945 63.28032913 186.32357234 66.37960362 C186.3262152 68.34900978 186.33133933 70.3184145 186.33919734 72.28780675 C186.33110041 73.21392262 186.32300349 74.1400385 186.3146612 75.09421849 C186.34091924 80.26720011 186.34091924 80.26720011 188.7932989 84.69600987 C193.12288291 87.68010492 197.51710446 87.25237296 202.62044734 87.1901505 C205.01294734 87.1695255 207.40544734 87.1489005 209.87044734 87.1276505 C209.87044734 94.3876505 209.87044734 101.6476505 209.87044734 109.1276505 C202.61044734 109.1276505 195.35044734 109.1276505 187.87044734 109.1276505 C188.17982234 111.3757755 188.48919734 113.6239005 188.80794734 115.9401505 C188.98197078 117.20472081 189.15599421 118.46929112 189.33529109 119.77218175 C189.77437189 123.11086753 189.77437189 123.11086753 190.87044734 126.1276505 C195.21206559 126.17717756 199.55353308 126.21343004 203.89534968 126.23751378 C205.37161581 126.24755641 206.84786213 126.26119315 208.32406062 126.27852941 C210.44894768 126.30285471 212.57357119 126.3141509 214.69857234 126.322963 C215.97635554 126.33343663 217.25413874 126.34391026 218.57064265 126.35470128 C222.56962706 126.10882103 222.56962706 126.10882103 225.87044734 124.1276505 C229.30995584 119.08014249 229.3378371 114.4192348 229.33919734 108.52999425 C229.34681086 107.61810842 229.35442439 106.70622258 229.36226863 105.76670384 C229.37303671 103.84627568 229.37593617 101.9257891 229.3714239 100.00533605 C229.37044912 97.07050802 229.41215797 94.13827505 229.45638484 91.20382237 C229.46159054 89.3333851 229.46428005 87.46293877 229.46419734 85.59249425 C229.4805926 84.71842427 229.49698786 83.8443543 229.51387995 82.94379735 C229.46446809 78.58360121 229.27959506 76.67921999 226.60994929 73.08028722 C223.88752881 71.13982567 222.7133458 70.49116629 219.44466609 70.42061925 C218.72625544 70.39250157 218.0078448 70.3643839 217.26766413 70.33541417 C216.37345759 70.32872716 215.47925105 70.32204015 214.55794734 70.3151505 C211.69107234 70.2532755 208.82419734 70.1914005 205.87044734 70.1276505 C205.87044734 63.5276505 205.87044734 56.9276505 205.87044734 50.1276505 C213.46044734 49.7976505 221.05044734 49.4676505 228.87044734 49.1276505 C228.39607234 46.3432755 227.92169734 43.5589005 227.43294734 40.6901505 C227.28543025 39.81173497 227.13791316 38.93331944 226.98592585 38.02828526 C226.63353247 34.26629086 226.63353247 34.26629086 224.87044734 31.1276505 C220.50165982 30.87185158 216.12082222 30.94241051 211.74544734 30.9401505 C210.52083796 30.92790441 209.29622859 30.91565831 208.03450984 30.90304112 C197.62063243 30.51742971 197.62063243 30.51742971 188.72347468 35.08565831 Z M237.87044734 31.1276505 C236.22044734 37.0676505 234.57044734 43.0076505 232.87044734 49.1276505 C237.16044734 49.1276505 241.45044734 49.1276505 245.87044734 49.1276505 C245.87044734 74.5376505 245.87044734 99.9476505 245.87044734 126.1276505 C252.14044734 126.1276505 258.41044734 126.1276505 264.87044734 126.1276505 C264.87044734 100.7176505 264.87044734 75.3076505 264.87044734 49.1276505 C269.16044734 49.1276505 273.45044734 49.1276505 277.87044734 49.1276505 C277.22896775 46.31409118 276.58249219 43.50184811 275.93294734 40.6901505 C275.75054499 39.88770909 275.56814265 39.08526769 275.38021296 38.25850987 C274.77383726 34.37812321 274.77383726 34.37812321 272.87044734 31.1276505 C270.27685412 31.03913521 267.71005042 31.01239105 265.11654109 31.02999425 C264.34109446 31.0314092 263.56564784 31.03282414 262.76670283 31.03428197 C260.28041239 31.03989705 257.79421073 31.05245204 255.30794734 31.0651505 C253.62630801 31.07016356 251.94466728 31.0747268 250.26302546 31.07882237 C246.13210404 31.08902218 242.00137552 31.10859445 237.87044734 31.1276505 Z M285.87044734 34.1276505 C283.18556679 39.1433967 282.49286265 42.94218857 282.48226374 48.69600987 C282.47700679 49.4173058 282.47174983 50.13860173 282.46633357 50.88175511 C282.45322456 53.2451963 282.46183876 55.60795351 282.47200984 57.9714005 C282.46998648 59.62614627 282.46707285 61.28089116 282.46331233 62.9356339 C282.45890131 66.39539679 282.46528044 69.85492654 282.47933406 73.31466222 C282.49642533 77.73631658 282.48657756 82.15742454 282.46861666 86.57905889 C282.45774566 89.993557 282.46124033 93.40792684 282.46900004 96.82242894 C282.47099289 98.45222087 282.46857512 100.08202467 282.46156138 101.71180272 C282.45389189 103.99461007 282.46562663 106.27654807 282.48226374 108.55929112 C282.48465052 109.85500035 282.4870373 111.15070958 282.48949641 112.48568273 C283.01080208 117.46947014 284.16343558 121.6506214 288.0757696 125.03585362 C291.60706281 126.4154241 294.84640823 126.59532327 298.58529109 126.5964005 C299.68533221 126.60782079 299.68533221 126.60782079 300.80759639 126.61947179 C302.35317041 126.63023983 303.898817 126.63313931 305.44442195 126.62862706 C307.79796128 126.62765463 310.14823751 126.66930651 312.50130671 126.713588 C314.00846142 126.71879582 315.51562738 126.72148318 317.02279109 126.7214005 C317.7198466 126.73779576 318.41690211 126.75419103 319.13508052 126.77108312 C324.76949692 126.6921349 327.05348643 124.96816171 330.87044734 121.1276505 C332.39547058 118.07760401 332.03532466 114.8918197 332.04744929 111.54439855 C332.05402049 110.76209874 332.06059169 109.97979894 332.06736201 109.17379308 C332.08710949 106.57898421 332.09876078 103.98423325 332.10872859 101.38936925 C332.11280411 100.5038066 332.11687964 99.61824395 332.12107867 98.70584607 C332.14194558 94.01873181 332.15624461 89.33164688 332.16561335 84.6444962 C332.17667924 79.80210647 332.21107927 74.96017608 332.25078505 70.11794877 C332.27692522 66.3955912 332.28530287 62.67334351 332.28889483 58.95090222 C332.29376752 57.16591659 332.30540094 55.38093609 332.32393283 53.59604001 C332.34826956 51.09668474 332.34736962 48.59852342 332.34041804 46.09908605 C332.3532281 45.36279469 332.36603816 44.62650334 332.3792364 43.86790013 C332.34288759 40.27935803 331.96029397 38.26952903 330.02295893 35.21024632 C324.12587827 29.50470885 315.07581611 30.79450526 307.43294734 30.8151505 C306.24378718 30.79903722 305.05462703 30.78292394 303.82943171 30.76632237 C297.22145846 30.76265332 291.67743898 30.79287518 285.87044734 34.1276505 Z M377.87044734 31.1276505 C377.87044734 62.4776505 377.87044734 93.8276505 377.87044734 126.1276505 C389.75044734 126.1276505 401.63044734 126.1276505 413.87044734 126.1276505 C414.86044734 120.5176505 415.85044734 114.9076505 416.87044734 109.1276505 C410.27044734 109.1276505 403.67044734 109.1276505 396.87044734 109.1276505 C396.87044734 102.1976505 396.87044734 95.2676505 396.87044734 88.1276505 C402.15044734 88.1276505 407.43044734 88.1276505 412.87044734 88.1276505 C412.87044734 82.8476505 412.87044734 77.5676505 412.87044734 72.1276505 C407.59044734 72.1276505 402.31044734 72.1276505 396.87044734 72.1276505 C396.87044734 64.5376505 396.87044734 56.9476505 396.87044734 49.1276505 C403.80044734 49.1276505 410.73044734 49.1276505 417.87044734 49.1276505 C417.39607234 46.3432755 416.92169734 43.5589005 416.43294734 40.6901505 C416.28543025 39.81173497 416.13791316 38.93331944 415.98592585 38.02828526 C415.63353247 34.26629086 415.63353247 34.26629086 413.87044734 31.1276505 C401.99044734 31.1276505 390.11044734 31.1276505 377.87044734 31.1276505 Z M437.87044734 31.1276505 C434.08914882 49.52905224 430.66397251 67.98147673 427.36629695 86.47433019 C426.68285781 90.30667495 425.99464739 94.13814645 425.30520362 97.96941495 C424.76889069 100.95270179 424.23503537 103.93642427 423.70193881 106.92028737 C423.4487303 108.33581975 423.19475149 109.75121456 422.9399721 111.16646504 C422.58835675 113.12166389 422.24041926 115.07752309 421.89266413 117.03341222 C421.69456645 118.14159307 421.49646876 119.24977391 421.29236811 120.391536 C420.79424583 123.16040065 420.79424583 123.16040065 420.87044734 126.1276505 C427.14044734 126.1276505 433.41044734 126.1276505 439.87044734 126.1276505 C441.15340557 121.68300185 441.15340557 121.68300185 440.87044734 115.1276505 C445.49044734 115.1276505 450.11044734 115.1276505 454.87044734 115.1276505 C455.36544734 120.5726505 455.36544734 120.5726505 455.87044734 126.1276505 C462.14044734 126.1276505 468.41044734 126.1276505 474.87044734 126.1276505 C474.12097542 116.31912538 472.28645142 106.73129277 470.52669734 97.0651505 C470.19396627 95.22339917 469.86149161 93.38160151 469.52926081 91.53975987 C468.83574593 87.69994872 468.13951326 83.86064356 467.44124812 80.02169347 C466.54533026 75.09511697 465.65572174 70.16742608 464.76803797 65.23936009 C464.08405375 61.44552679 463.39706271 57.65224295 462.70911616 53.85912633 C462.37971519 52.04114984 462.05119047 50.22301436 461.72355098 48.40471959 C461.26707109 45.87430384 460.80662297 43.34464268 460.34505671 40.8151505 C460.20996196 40.0619402 460.0748672 39.30872991 459.93567866 38.53269506 C459.26234482 34.71833039 459.26234482 34.71833039 457.87044734 31.1276505 C451.27044734 31.1276505 444.67044734 31.1276505 437.87044734 31.1276505 Z M474.87044734 31.1276505 C473.22044734 37.0676505 471.57044734 43.0076505 469.87044734 49.1276505 C474.16044734 49.1276505 478.45044734 49.1276505 482.87044734 49.1276505 C482.87044734 74.5376505 482.87044734 99.9476505 482.87044734 126.1276505 C489.14044734 126.1276505 495.41044734 126.1276505 501.87044734 126.1276505 C501.87044734 100.7176505 501.87044734 75.3076505 501.87044734 49.1276505 C506.16044734 49.1276505 510.45044734 49.1276505 514.87044734 49.1276505 C514.22896775 46.31409118 513.58249219 43.50184811 512.93294734 40.6901505 C512.75054499 39.88770909 512.56814265 39.08526769 512.38021296 38.25850987 C511.77383726 34.37812321 511.77383726 34.37812321 509.87044734 31.1276505 C507.27685412 31.03913521 504.71005042 31.01239105 502.11654109 31.02999425 C501.34109446 31.0314092 500.56564784 31.03282414 499.76670283 31.03428197 C497.28041239 31.03989705 494.79421073 31.05245204 492.30794734 31.0651505 C490.62630801 31.07016356 488.94466728 31.0747268 487.26302546 31.07882237 C483.13210404 31.08902218 479.00137552 31.10859445 474.87044734 31.1276505 Z M521.99544734 35.0651505 C519.51684528 39.60925428 519.6926897 43.95833377 519.66732234 48.994838 C519.66162226 49.86657659 519.65592219 50.73831517 519.65004939 51.63647008 C519.64060551 53.48068586 519.63406784 55.32491847 519.63021296 57.16915441 C519.62050801 59.98504736 519.58947948 62.80021009 519.55794734 65.61593175 C519.5514169 67.40889617 519.54616659 69.20186581 519.54232234 70.994838 C519.52997554 71.83457158 519.51762873 72.67430516 519.50490779 73.53948522 C519.52263714 78.21104958 519.78485405 81.36276956 522.87044734 85.1276505 C527.40506149 87.32266662 531.80368344 87.37616727 536.74544734 87.2526505 C540.27232234 87.1907755 540.27232234 87.1907755 543.87044734 87.1276505 C543.54044734 94.0576505 543.21044734 100.9876505 542.87044734 108.1276505 C532.47544734 108.6226505 532.47544734 108.6226505 521.87044734 109.1276505 C521.99419734 110.8189005 522.11794734 112.5101505 522.24544734 114.2526505 C522.31505671 115.20397862 522.38466609 116.15530675 522.45638484 117.135463 C522.89729964 120.32169638 523.82014607 123.09467526 524.87044734 126.1276505 C529.05131886 126.20207039 533.23183464 126.25637868 537.41317195 126.29244542 C538.83413875 126.3074881 540.25505946 126.32792754 541.67586726 126.35396886 C543.72391619 126.39055397 545.77134884 126.40742147 547.81966609 126.42061925 C549.05031794 126.4363297 550.2809698 126.45204015 551.54891413 126.46822667 C555.17787242 126.09612841 556.99217101 125.32713359 559.87044734 123.1276505 C563.31172272 117.96573742 563.02964631 112.77246838 563.03841609 106.7214005 C563.04174449 105.91907994 563.04507289 105.11675939 563.04850215 104.29012609 C563.05354943 102.59909185 563.05591115 100.90804773 563.05575007 99.21700597 C563.05794002 96.63627265 563.07612828 94.05596475 563.09505671 91.47530675 C563.09799044 89.82817279 563.09997537 88.18103681 563.10091609 86.5339005 C563.1081016 85.76606236 563.11528712 84.99822423 563.12269038 84.20711827 C563.10527157 80.10665538 562.97635815 76.70615929 560.87044734 73.1276505 C558.1100454 71.19217121 555.86508857 70.88486991 552.54232234 70.932338 C551.82141413 70.93733312 551.10050593 70.94232823 550.35775203 70.94747472 C549.45444148 70.96568273 548.55113093 70.98389073 547.62044734 71.0026505 C544.73294734 71.0439005 541.84544734 71.0851505 538.87044734 71.1276505 C538.87044734 63.8676505 538.87044734 56.6076505 538.87044734 49.1276505 C546.46044734 49.1276505 554.05044734 49.1276505 561.87044734 49.1276505 C561.21596175 42.58279463 560.58546853 37.30172679 558.87044734 31.1276505 C554.34966872 31.06930629 549.8289878 31.03393798 545.30794734 31.0026505 C544.03113093 30.98589269 542.75431453 30.96913487 541.43880671 30.95186925 C530.89605572 30.42098237 530.89605572 30.42098237 521.99544734 35.0651505 Z M341.87044734 73.1276505 C339.61459076 77.63936365 340.25732355 83.09825976 339.87044734 88.1276505 C349.11044734 88.1276505 358.35044734 88.1276505 367.87044734 88.1276505 C369.31509598 83.03624019 369.31509598 83.03624019 368.87044734 73.1276505 C359.96044734 73.1276505 351.05044734 73.1276505 341.87044734 73.1276505 Z " fill="#FFFFFF" transform="translate(15.129552662372589,-0.12765049934387207)"/>
<path d="M0 0 C3.3 0 6.6 0 10 0 C10 20.46 10 40.92 10 62 C6.7 62 3.4 62 0 62 C-1.75518106 60.24481894 -1.12760783 57.77650285 -1.12939453 55.39453125 C-1.13254669 54.19658936 -1.13569885 52.99864746 -1.13894653 51.7644043 C-1.1369223 50.46027588 -1.13489807 49.15614746 -1.1328125 47.8125 C-1.1334856 46.47110985 -1.13445568 45.12971981 -1.13571167 43.78833008 C-1.13718836 40.97378379 -1.13503504 38.15926918 -1.13037109 35.34472656 C-1.12467381 31.72959369 -1.12795297 28.11453505 -1.13394356 24.49940491 C-1.13754997 21.72855058 -1.13641022 18.95771398 -1.13381577 16.18685913 C-1.13282033 14.20310417 -1.13586741 12.21934853 -1.13894653 10.2355957 C-1.13579437 9.03765381 -1.13264221 7.83971191 -1.12939453 6.60546875 C-1.12859894 5.54481201 -1.12780334 4.48415527 -1.12698364 3.39135742 C-1 1 -1 1 0 0 Z " fill="#FFFFFF" transform="translate(318,48)"/>
<path d="M0 0 C3.3 0 6.6 0 10 0 C10 20.46 10 40.92 10 62 C6.7 62 3.4 62 0 62 C-1.75518106 60.24481894 -1.12760783 57.77650285 -1.12939453 55.39453125 C-1.13254669 54.19658936 -1.13569885 52.99864746 -1.13894653 51.7644043 C-1.1369223 50.46027588 -1.13489807 49.15614746 -1.1328125 47.8125 C-1.1334856 46.47110985 -1.13445568 45.12971981 -1.13571167 43.78833008 C-1.13718836 40.97378379 -1.13503504 38.15926918 -1.13037109 35.34472656 C-1.12467381 31.72959369 -1.12795297 28.11453505 -1.13394356 24.49940491 C-1.13754997 21.72855058 -1.13641022 18.95771398 -1.13381577 16.18685913 C-1.13282033 14.20310417 -1.13586741 12.21934853 -1.13894653 10.2355957 C-1.13579437 9.03765381 -1.13264221 7.83971191 -1.12939453 6.60546875 C-1.12859894 5.54481201 -1.12780334 4.48415527 -1.12698364 3.39135742 C-1 1 -1 1 0 0 Z " fill="#FFFFFF" transform="translate(164,48)"/>
<path d="M0 0 C3.63 0 7.26 0 11 0 C12.49010906 2.98021812 12.18333533 6.03924191 12.203125 9.30859375 C12.20882507 10.03111832 12.21452515 10.75364288 12.22039795 11.49806213 C12.22984718 13.02709488 12.23638163 14.55614799 12.24023438 16.08520508 C12.24994812 18.42500241 12.28097377 20.76392423 12.3125 23.10351562 C12.31902937 24.58853645 12.3242801 26.07356355 12.328125 27.55859375 C12.3404718 28.2586705 12.3528186 28.95874725 12.36553955 29.68003845 C12.34563598 34.0174472 12.235328 34.764672 9 38 C6.03 38 3.06 38 0 38 C0 25.46 0 12.92 0 0 Z " fill="#FFFFFF" transform="translate(50,48)"/>
<path d="M0 0 C3.63 0 7.26 0 11 0 C12.42503565 2.85007131 12.12980035 5.28620255 12.1328125 8.46875 C12.13474609 10.40814453 12.13474609 10.40814453 12.13671875 12.38671875 C12.13357666 13.39871338 12.13357666 13.39871338 12.13037109 14.43115234 C12.12502093 16.49193689 12.13032035 18.55250349 12.13671875 20.61328125 C12.13542969 21.90621094 12.13414063 23.19914062 12.1328125 24.53125 C12.13168457 25.72298828 12.13055664 26.91472656 12.12939453 28.14257812 C12 31 12 31 11 33 C7.37 33 3.74 33 0 33 C0 22.11 0 11.22 0 0 Z " fill="#FFFFFF" transform="translate(106,48)"/>
<path d="M0 0 C0.33 0 0.66 0 1 0 C1.50986264 3.64452344 2.00605846 7.29078746 2.5 10.9375 C2.64308594 11.95908203 2.78617187 12.98066406 2.93359375 14.03320312 C3.74580002 20.08607369 4.15282396 25.89340944 4 32 C1.36 32 -1.28 32 -4 32 C-2.57943925 7.73831776 -2.57943925 7.73831776 0 0 Z " fill="#FFFFFF" transform="translate(463,68)"/>
</svg>
